<svg width="1440" height="2360" viewBox="0 0 1440 2360" fill="none" xmlns="http://www.w3.org/2000/svg">
<g clip-path="url(#clip0_1271_8)">
<circle cx="615" cy="309" r="21" stroke="#D4E4B1" stroke-width="2"/>
<circle cx="864" cy="298" r="29" stroke="#D4E4B1" stroke-width="2"/>
<circle cx="1338" cy="229" r="57" stroke="#D4E4B1" stroke-width="2"/>
<circle cx="716" cy="531" r="57" stroke="#D4E4B1" stroke-width="2"/>
<circle cx="34" cy="258" r="57" stroke="#D4E4B1" stroke-width="2"/>
<circle cx="1379" cy="2250" r="57" stroke="#D4E4B1" stroke-width="2"/>
<circle cx="797" cy="1442" r="21" stroke="#D4E4B1" stroke-width="2"/>
<circle cx="42" cy="1715" r="57" stroke="#D4E4B1" stroke-width="2"/>
<circle cx="427" cy="952" r="21" stroke="#D4E4B1" stroke-width="2"/>
<circle cx="1146" cy="2139" r="18" stroke="#D4E4B1" stroke-width="2"/>
<circle cx="1215" cy="1770" r="18" stroke="#D4E4B1" stroke-width="2"/>
<circle cx="630" cy="2308" r="18" stroke="#D4E4B1" stroke-width="2"/>
<circle cx="301.5" cy="769.5" r="30.5" stroke="#D4E4B1" stroke-width="2"/>
<circle cx="633.5" cy="1788.5" r="30.5" stroke="#D4E4B1" stroke-width="2"/>
<circle cx="73" cy="816" r="29" stroke="#D4E4B1" stroke-width="2"/>
<circle cx="72" cy="2238" r="29" stroke="#D4E4B1" stroke-width="2"/>
<circle cx="1369" cy="1925" r="29" stroke="#D4E4B1" stroke-width="2"/>
<circle cx="103" cy="91" r="17" stroke="#D4E4B1" stroke-width="2"/>
<circle cx="282" cy="1520" r="21" stroke="#D4E4B1" stroke-width="2"/>
<circle cx="1038" cy="58" r="57" stroke="#D4E4B1" stroke-width="2"/>
<circle cx="1329" cy="1453" r="57" stroke="#D4E4B1" stroke-width="2"/>
<circle cx="1017" cy="1051" r="57" stroke="#D4E4B1" stroke-width="2"/>
<circle cx="34" cy="1167" r="57" stroke="#D4E4B1" stroke-width="2"/>
<circle cx="1391" cy="831" r="29" stroke="#D4E4B1" stroke-width="2"/>
<circle cx="91.5" cy="1353.5" r="30.5" stroke="#D4E4B1" stroke-width="2"/>
</g>
<defs>
<clipPath id="clip0_1271_8">
<rect width="1440" height="2360" fill="white"/>
</clipPath>
</defs>
</svg>
